<?xml version="1.0" encoding="iso-8859-1"?>
<!-- Generator: Adobe Illustrator 19.0.0, SVG Export Plug-In . SVG Version: 6.00 Build 0)  -->
<svg version="1.1" id="Layer_1" xmlns="http://www.w3.org/2000/svg" xmlns:xlink="http://www.w3.org/1999/xlink" x="0px" y="0px"
	 viewBox="0 0 512 512" style="enable-background:new 0 0 512 512;" xml:space="preserve">
<g>
	<g>
		<circle style="fill:#FEE187;" cx="256" cy="256" r="256"/>
	</g>
	<path style="fill:#FFC61B;" d="M497.347,170.479l-77.338-77.338L122.258,390.892L243.04,511.674
		c4.294,0.214,8.614,0.324,12.96,0.324c141.384,0,256-114.616,256-256C512,226.006,506.825,197.225,497.347,170.479z"/>
	<g>
		<g>
			<path style="fill:#940030;" d="M267.102,261.275c-4.193,0-8.382-1.6-11.581-4.796c-6.396-6.396-6.396-16.767,0-23.162
				L396.307,92.531c6.397-6.394,16.765-6.394,23.162,0c6.396,6.396,6.396,16.767,0,23.162L278.683,256.479
				C275.485,259.675,271.294,261.275,267.102,261.275z"/>
		</g>
		<g>
			<path style="fill:#77012C;" d="M419.469,92.531c-0.097-0.097-0.203-0.179-0.302-0.272L255.248,256.178
				c0.095,0.098,0.176,0.205,0.272,0.302c3.198,3.196,7.389,4.796,11.581,4.796c4.193,0,8.382-1.6,11.581-4.796l140.786-140.786
				C425.865,109.296,425.865,98.926,419.469,92.531z"/>
		</g>
		<g>
			<path style="fill:#77012C;" d="M282.889,364.947c-4.193,0-8.382-1.6-11.581-4.796c-6.396-6.396-6.396-16.767,0-23.162
				l140.786-140.784c6.399-6.396,16.767-6.394,23.162,0c6.396,6.396,6.396,16.767,0,23.162L294.471,360.151
				C291.271,363.349,287.079,364.947,282.889,364.947z"/>
		</g>
		<g>
			<path style="fill:#940030;" d="M163.43,245.488c-4.193,0-8.382-1.6-11.581-4.796c-6.396-6.396-6.396-16.767,0-23.162
				L292.633,76.743c6.397-6.394,16.765-6.394,23.162,0c6.396,6.396,6.396,16.767,0,23.162L175.011,240.692
				C171.811,243.89,167.621,245.488,163.43,245.488z"/>
		</g>
		<g>
			<circle style="fill:#E03A00;" cx="202.104" cy="309.896" r="113.778"/>
		</g>
		<g>
			<path style="fill:#940030;" d="M282.262,229.164L121.37,390.056c20.613,20.759,49.168,33.618,80.734,33.618
				c62.838,0,113.778-50.94,113.778-113.778C315.882,278.331,303.021,249.775,282.262,229.164z"/>
		</g>
	</g>
</g>
<g>
</g>
<g>
</g>
<g>
</g>
<g>
</g>
<g>
</g>
<g>
</g>
<g>
</g>
<g>
</g>
<g>
</g>
<g>
</g>
<g>
</g>
<g>
</g>
<g>
</g>
<g>
</g>
<g>
</g>
</svg>
